inDegrees=no
num_controls=7
num_derivatives=13
num_iterations=103
num_multipliers=7
num_parameters=0
num_slacks=7
num_states=26
objective=5.455895
objective_accelerations=0.800026
objective_balance=0.037632
objective_effort=0.245574
objective_height=4.271482
objective_ligament=0.101181
solver_duration=1146.727488
status=Solve_Succeeded
success=true
DataType=double
version=3
OpenSimVersion=4.4-2022-07-23-0e9fedc
endheader
time	/jointset/ground_pelvis/pelvis_tilt/value	/jointset/ground_pelvis/pelvis_tx/value	/jointset/ground_pelvis/pelvis_ty/value	/jointset/hip_l/hip_flexion_l/value	/jointset/hip_l/hip_adduction_l/value	/jointset/hip_l/hip_rotation_l/value	/jointset/back/lumbar_extension/value	/jointset/patellofemoral_l/patellar_flexion_l/value	/jointset/knee_l/knee_flexion_l/value	/jointset/knee_l/knee_adduction_l/value	/jointset/knee_l/knee_rotation_l/value	/jointset/ankle_l/ankle_angle_l/value	/jointset/subtalar_l/subtalar_angle_l/value	/jointset/ground_pelvis/pelvis_tilt/speed	/jointset/ground_pelvis/pelvis_tx/speed	/jointset/ground_pelvis/pelvis_ty/speed	/jointset/hip_l/hip_flexion_l/speed	/jointset/hip_l/hip_adduction_l/speed	/jointset/hip_l/hip_rotation_l/speed	/jointset/back/lumbar_extension/speed	/jointset/patellofemoral_l/patellar_flexion_l/speed	/jointset/knee_l/knee_flexion_l/speed	/jointset/knee_l/knee_adduction_l/speed	/jointset/knee_l/knee_rotation_l/speed	/jointset/ankle_l/ankle_angle_l/speed	/jointset/subtalar_l/subtalar_angle_l/speed	/forceset/tau_hip_flexion_l	/forceset/tau_hip_adduction_l	/forceset/tau_hip_rotation_l	/forceset/tau_knee_flexion_l	/forceset/tau_ankle_angle_l	/forceset/tau_subtalar_angle_l	/forceset/tau_lumbar_extension	lambda_cid13_p0	lambda_cid13_p1	lambda_cid13_p2	lambda_cid13_p3	lambda_cid13_p4	lambda_cid13_p5	lambda_cid14_p0	/jointset/ground_pelvis/pelvis_tilt/accel	/jointset/ground_pelvis/pelvis_tx/accel	/jointset/ground_pelvis/pelvis_ty/accel	/jointset/hip_l/hip_flexion_l/accel	/jointset/hip_l/hip_adduction_l/accel	/jointset/hip_l/hip_rotation_l/accel	/jointset/back/lumbar_extension/accel	/jointset/patellofemoral_l/patellar_flexion_l/accel	/jointset/knee_l/knee_flexion_l/accel	/jointset/knee_l/knee_adduction_l/accel	/jointset/knee_l/knee_rotation_l/accel	/jointset/ankle_l/ankle_angle_l/accel	/jointset/subtalar_l/subtalar_angle_l/accel	gamma_cid13_p0	gamma_cid13_p1	gamma_cid13_p2	gamma_cid13_p3	gamma_cid13_p4	gamma_cid13_p5	gamma_cid14_p0
1.5	-0.6003332538627512	-0.04592996047972275	0.7741397299580695	1.300270318966565	-0.3536080246795146	-0.09008562299701457	-0.3541035808748154	0.6347621007499021	0.6347621007498014	-0.06384773820009676	-0.1745185842216402	0.03365012794616971	0.07793550291233389	1.160913787990535	0.4976392164100335	0.5370024954147989	-3.040205858065817	-0.02399357709567248	-0.571143292968749	0.5789896870290453	-1.715484278103335	-1.715484278103463	-0.2423890486173871	0.001069919582985649	0.0343930228049952	-0.007673736616339377	-0.2221979604842913	0.02899289195834726	0.009090209267298083	-0.06198367227495004	0.02567193731433045	0.001818687793845085	0.1779718260944805	-15.98241885786461	-0.4702033918572552	2.625285201080404	-7.681809681822115	-431.2011556333157	-50.43698697179341	-17.77598496629973	1.013686608603811	0.9858030162161976	-0.6370347024598021	-2.096385637349237	0.2995972471242536	-0.3490175438045671	2.161577079670644	-0.7569899584950753	-0.75698995849505	-0.3751900659227669	0.1760512788449479	0.2483795211586019	0.3878226353418208	5.470043782605344e-08	1.872405514771904e-06	-7.35654996702425e-08	3.674773038101467e-07	3.355333750755065e-07	-2.007915277941147e-07	3.439679563122704e-07
1.51	-0.5886739900531976	-0.04090472005520414	0.7794768402187917	1.269765519263941	-0.3538345344068687	-0.09581557638030774	-0.3482073173042196	0.6175712551848472	0.617571255185118	-0.0662925816765895	-0.1745016425076055	0.0340062963219593	0.07787650143973809	1.170759925255317	0.507348887774752	0.5303038790668559	-3.060361739018302	-0.0212841710312893	-0.5747958343343532	0.6002228997029143	-1.722467282782221	-1.722467282782313	-0.2465305698207723	0.002346544946366242	0.03686578118876695	-0.004094402802282723	-0.2151111637332953	0.02836574706174118	0.009625369786014627	-0.06011972680613698	0.0224237349061719	0.0009603919464443386	0.1728204807142376	-16.85358091830056	-0.1493775837782604	2.807686062405859	-6.920191838302175	-426.9577442289426	-50.19786541461269	-18.42765164311768	0.9432681189524426	0.9546130492307416	-0.70352294897237	-1.91628068419778	0.2600475349721663	-0.365305742534637	2.098174251728556	-0.6364075379129641	-0.636407537907604	-0.4259740446390969	0.1074614596254729	0.2505504587569342	0.3476318784716086	1.06218213160019e-07	1.784769738478884e-06	-5.54053099970744e-07	3.261027338707341e-07	4.566252847057164e-07	-1.838371149807133e-07	3.962186082285639e-07
1.52	-0.5769216267042954	-0.03578417014651335	0.7847435147464319	1.239070942479733	-0.3540332630237668	-0.101580441839699	-0.3420999254287849	0.6003170892104608	0.6003170892102566	-0.06877730854496465	-0.1744711358807175	0.03438795757393702	0.0778542219300916	1.179533695861738	0.5167011132444711	0.5229153487985235	-3.078161274370736	-0.01843735501146327	-0.5781257080838981	0.6212153479962194	-1.728148360074195	-1.72814836007425	-0.250365726908009	0.003782902091232903	0.03949159804336765	-0.0003293440269350461	-0.2080243669832601	0.0277386021631541	0.01016053030126972	-0.05825578133762435	0.01917553249743038	0.0001020960969530846	0.1676691353336343	-17.7270981334462	0.1708467326048083	2.991341603419851	-6.158276240616557	-422.7524892351067	-50.02163834253447	-19.06362694084097	0.7992132769297126	0.9143138372173438	-0.7750174865376013	-1.625116517339842	0.3270792382123848	-0.284484020594431	2.113424203557019	-0.4966044811122249	-0.4966044811122329	-0.3139172426933797	0.2079976351405406	0.2789912153257421	0.4249676275998538	1.428210631903937e-07	1.763939507942599e-06	-9.009402760730965e-07	3.03711488974902e-07	5.547222345136207e-07	-1.543152335060906e-07	4.393705969863062e-07
1.53	-0.5650867600009499	-0.0305719642045157	0.7899329309632461	1.208209925085716	-0.3542032275925104	-0.1073764899082335	-0.335784169747372	0.5830125254548283	0.5830125254554166	-0.07129985385299734	-0.1744252925053147	0.03479649333771395	0.077870065390906	1.187254653533606	0.5256696498192813	0.5148579394749156	-3.093635355169783	-0.01554214858810443	-0.581008138384928	0.6418773276999492	-1.732542044398616	-1.732542044398608	-0.2541143376157855	0.005425790172764376	0.04223577097652728	0.003517409266148406	-0.2009413756124209	0.02704461294162612	0.01067275943028841	-0.05643901079674305	0.01600754594357678	-0.00104831776679943	0.1624639185455246	-18.59922612808812	0.6158943440840178	3.15715239537486	-5.351691007138111	-418.6476568065154	-49.63214191625401	-19.68051269860892	0.7308429337830111	0.8776198307807832	-0.8374623536245933	-1.447460031725605	0.2725867212717014	-0.2783630182092394	2.033815764244643	-0.3774965758651365	-0.377496575855761	-0.4006945084236904	0.1481324900977847	0.2752199970397994	0.3672881103387304	1.635768050857032e-07	1.814090169772841e-06	-1.105877001464917e-06	3.014900269378738e-07	6.283870395103253e-07	-1.114404165789205e-07	4.728552561380879e-07
1.54	-0.5531802225365816	-0.02527217364413897	0.795038501147155	1.17720638564961	-0.3543438710215819	-0.1131990103767077	-0.3292635480868162	0.5656706756230638	0.5656706756232767	-0.07385895757437953	-0.1743618806290021	0.03523308876377004	0.07792492817068891	1.193867848064235	0.5342180369202851	0.5061461422176472	-3.106665682790393	-0.01257312708965953	-0.5834201880200318	0.6621885438223302	-1.735605575433326	-1.735605575433254	-0.2576774092677543	0.007296602071682683	0.04510353049886313	0.007474519766244881	-0.1938583842417414	0.02635062371918991	0.01118498855249851	-0.05462224025575136	0.01283955938946835	-0.002198731631502786	0.1572587017575764	-19.4741870760251	1.059894033338696	3.32489490379674	-4.542344116031924	-414.5861217077098	-49.31955185492193	-20.27490292319263	0.5776606486803679	0.8302839424572709	-0.9058950732696223	-1.136365881652529	0.3418422532293429	-0.1904078874110123	2.043271487286515	-0.2305738231698265	-0.2305738231698272	-0.2768094315322813	0.253582398615903	0.3037085331625337	0.4470390690022482	1.709500016544817e-07	1.97655808755639e-06	-1.177362955961677e-06	3.178759329376121e-07	6.924210090686142e-07	-6.266362437224845e-08	5.02577826187015e-07
1.55	-0.541213167546691	-0.01988913347529862	0.8000537260610435	1.146084910049642	-0.3544546579654651	-0.119044176819932	-0.3225424900898985	0.5483049053436527	0.5483049053439695	-0.07645274392753336	-0.1742795341143485	0.03569884478955732	0.07801967472304183	1.199329420713797	0.5423027290410923	0.4967895127356224	-3.117161722222981	-0.009580579903325585	-0.585523055541169	0.6818930621631382	-1.737299448904404	-1.737299448904342	-0.2610594975986768	0.009209041651817379	0.04806221023003347	0.01148239363764815	-0.1861450642442579	0.0251599878751588	0.01163945647278231	-0.05353278889693251	0.01061501531868005	-0.003602757911704871	0.1515034769034125	-20.05512840915893	1.590976084530832	3.446291406184073	-3.855779766108976	-410.373192176486	-48.93530330824387	-20.84329422139906	0.4983990732002751	0.784547022361229	-0.9667911053393102	-0.9359995871057628	0.2782299263943359	-0.2062957139593239	1.914542996200027	-0.1015477947216561	-0.1015477947235931	-0.3654543026878759	0.1652320156814181	0.2942030687014153	0.3785424136341871	1.629041786079099e-07	2.268435017633955e-06	-1.095090413557616e-06	3.557007629797103e-07	7.453585812739465e-07	-7.086730213107245e-09	5.279658153130881e-07
